<?xml version="1.0" encoding="UTF-8"?>
<svg id="Capa_1" data-name="Capa 1" xmlns="http://www.w3.org/2000/svg" viewBox="0 0 458.55 229.79">
  <defs>
    <style>
      .cls-1 {
        fill: #a92eff;
      }
    </style>
  </defs>
  <path d="m228.56,42.52c3.69,0,6.86,1.34,9.5,4.01,2.64,2.68,3.96,5.92,3.96,9.72s-1.31,6.96-3.93,9.61c-2.62,2.65-5.74,3.97-9.39,3.97s-6.94-1.35-9.58-4.05c-2.64-2.7-3.96-5.98-3.96-9.84s1.31-6.87,3.92-9.49c2.62-2.62,5.77-3.94,9.46-3.94Z"/>
  <path d="m98.27,83.78h18.59v63.71c0,12.58-2.53,21.83-7.59,27.75-6.79,8.02-17.02,12.03-30.69,12.03-7.29,0-13.42-.91-18.39-2.73-4.96-1.82-9.16-4.5-12.58-8.03-3.41-3.53-5.95-7.83-7.59-12.88h20.58c1.82,2.1,4.17,3.68,7.04,4.75,2.87,1.07,6.27,1.61,10.19,1.61,5.01,0,9.04-.78,12.1-2.32,3.05-1.55,5.21-3.55,6.46-6.02,1.25-2.46,1.88-6.7,1.88-12.71-3.28,3.28-6.72,5.64-10.32,7.07-3.6,1.44-7.68,2.15-12.24,2.15-9.98,0-18.41-3.6-25.29-10.8-6.88-7.2-10.32-16.31-10.32-27.34,0-11.8,3.64-21.28,10.94-28.44,6.61-6.47,14.49-9.71,23.65-9.71,4.28,0,8.33.79,12.13,2.36,3.8,1.57,7.62,4.16,11.45,7.76v-8.2Zm-19.34,15.52c-5.88,0-10.73,1.97-14.56,5.91s-5.74,8.9-5.74,14.87,1.96,11.28,5.88,15.24c3.92,3.96,8.84,5.95,14.76,5.95s10.56-1.94,14.32-5.81c3.76-3.87,5.64-8.95,5.64-15.24s-1.89-11.23-5.68-15.11c-3.78-3.87-8.66-5.81-14.62-5.81Z"/>
  <path d="m183.79,83.78h18.66v74.37h-18.66v-7.86c-3.64,3.46-7.29,5.96-10.96,7.48-3.66,1.53-7.64,2.29-11.91,2.29-9.6,0-17.91-3.72-24.92-11.18-7.01-7.45-10.51-16.71-10.51-27.79s3.39-20.89,10.17-28.23c6.78-7.34,15.02-11.01,24.71-11.01,4.46,0,8.65.84,12.56,2.53,3.91,1.69,7.53,4.22,10.85,7.59v-8.2Zm-19.62,15.31c-5.77,0-10.56,2.04-14.37,6.12-3.81,4.08-5.72,9.31-5.72,15.69s1.94,11.71,5.83,15.86c3.88,4.15,8.66,6.22,14.34,6.22s10.72-2.04,14.58-6.12c3.86-4.08,5.79-9.42,5.79-16.03s-1.93-11.71-5.79-15.72c-3.86-4.01-8.74-6.02-14.65-6.02Z"/>
  <rect x="219.27" y="83.78" width="18.66" height="74.37"/>
  <path d="m309.77,83.78h18.66v74.37h-18.66v-7.86c-3.64,3.46-7.29,5.96-10.96,7.48-3.66,1.53-7.64,2.29-11.91,2.29-9.6,0-17.91-3.72-24.92-11.18-7.01-7.45-10.51-16.71-10.51-27.79s3.39-20.89,10.17-28.23c6.78-7.34,15.02-11.01,24.71-11.01,4.46,0,8.65.84,12.56,2.53,3.91,1.69,7.53,4.22,10.85,7.59v-8.2Zm-19.62,15.31c-5.77,0-10.56,2.04-14.37,6.12-3.81,4.08-5.72,9.31-5.72,15.69s1.94,11.71,5.83,15.86c3.88,4.15,8.66,6.22,14.34,6.22,5.86,0,10.72-2.04,14.58-6.12,3.86-4.08,5.79-9.42,5.79-16.03s-1.93-11.71-5.79-15.72c-3.86-4.01-8.74-6.02-14.65-6.02Z"/>
  <g>
    <g>
      <polygon class="cls-1" points="336.53 85.5 339.7 85.5 393.64 159.87 390.46 159.87 336.53 85.5"/>
      <polygon class="cls-1" points="344.08 85.5 347.26 85.5 401.19 159.87 398.01 159.87 344.08 85.5"/>
      <polygon class="cls-1" points="351.64 85.5 354.81 85.5 408.75 159.87 405.57 159.87 351.64 85.5"/>
      <polygon class="cls-1" points="359.19 85.5 362.37 85.5 416.3 159.87 413.12 159.87 359.19 85.5"/>
      <path class="cls-1" d="m352.66,163.56c15.41-21.82,30.81-43.63,46.22-65.45,2.18-3.09,4.36-6.18,6.54-9.27,2.16-3.06.55-7.71-2.49-9.49-3.47-2.03-7.32-.58-9.49,2.49-15.41,21.82-30.81,43.63-46.22,65.45-2.18,3.09-4.36,6.18-6.54,9.27s-.55,7.71,2.49,9.49c3.47,2.03,7.32.58,9.49-2.49h0Z"/>
    </g>
    <polygon class="cls-1" points="408 98.82 401.84 80.45 383.78 86.51 380.26 75.99 408.83 66.41 418.52 95.29 408 98.82"/>
  </g>
</svg>