<?xml version="1.0" encoding="UTF-8"?>
<svg id="Capa_1" data-name="Capa 1" xmlns="http://www.w3.org/2000/svg" viewBox="0 0 226.77 226.77">
  <defs>
    <style>
      .cls-1 {
        fill: #a92eff;
      }
    </style>
  </defs>
  <g>
    <polygon class="cls-1" points="45.4 61.64 50.66 61.64 140.11 184.98 134.84 184.98 45.4 61.64"/>
    <polygon class="cls-1" points="57.93 61.64 63.19 61.64 152.64 184.98 147.37 184.98 57.93 61.64"/>
    <polygon class="cls-1" points="70.45 61.64 75.72 61.64 165.17 184.98 159.9 184.98 70.45 61.64"/>
    <polygon class="cls-1" points="82.98 61.64 88.25 61.64 177.7 184.98 172.43 184.98 82.98 61.64"/>
    <path class="cls-1" d="m72.15,191.1c25.55-36.18,51.1-72.36,76.65-108.54,3.62-5.12,7.23-10.25,10.85-15.37,3.58-5.08.91-12.79-4.13-15.73-5.76-3.37-12.14-.96-15.73,4.13-25.55,36.18-51.1,72.36-76.65,108.54-3.62,5.12-7.23,10.25-10.85,15.37-3.58,5.08-.91,12.79,4.13,15.73,5.76,3.37,12.14.96,15.73-4.13h0Z"/>
  </g>
  <polygon class="cls-1" points="163.93 83.74 153.71 53.28 123.77 63.32 117.92 45.88 165.31 29.98 181.37 77.88 163.93 83.74"/>
</svg>